<svg width="800" height="600" viewBox="0 0 800 600" fill="none" xmlns="http://www.w3.org/2000/svg">
  <defs>
    <linearGradient id="skyGradient" x1="0%" y1="0%" x2="0%" y2="100%">
      <stop offset="0%" style="stop-color:#87CEEB;stop-opacity:1" />
      <stop offset="100%" style="stop-color:#E0F6FF;stop-opacity:1" />
    </linearGradient>
  </defs>
  
  <!-- Sky -->
  <rect width="800" height="400" fill="url(#skyGradient)"/>
  
  <!-- Ground -->
  <rect x="0" y="400" width="800" height="200" fill="#8B4513"/>
  
  <!-- Barn -->
  <rect x="200" y="300" width="150" height="100" fill="#DC143C"/>
  <polygon points="200,300 275,250 350,300" fill="#8B0000"/>
  <rect x="250" y="320" width="50" height="60" fill="#8B4513"/>
  
  <!-- Farmhouse -->
  <rect x="500" y="280" width="120" height="120" fill="#F5DEB3"/>
  <polygon points="500,280 560,240 620,280" fill="#8B4513"/>
  <rect x="520" y="320" width="30" height="50" fill="#8B4513"/>
  
  <!-- Hidden objects -->
  <!-- Tractor -->
  <g transform="translate(100, 450)">
    <rect x="-20" y="-10" width="40" height="20" fill="#FFD700"/>
    <rect x="-15" y="-15" width="10" height="10" fill="#131d8b"/>
    <circle cx="-15" cy="10" r="8" fill="#000"/>
    <circle cx="15" cy="10" r="8" fill="#000"/>
    <rect x="-25" y="-5" width="5" height="10" fill="#131d8b"/>
  </g>
  
  <!-- Cow -->
  <g transform="translate(400, 420)">
    <ellipse cx="0" cy="0" rx="25" ry="15" fill="#f2f2f2"/>
    <circle cx="-10" cy="-5" r="3" fill="#000"/>
    <circle cx="10" cy="-5" r="3" fill="#000"/>
    <ellipse cx="0" cy="5" rx="8" ry="4" fill="#000"/>
  </g>
  
  <!-- Chicken -->
  <g transform="translate(600, 380)">
    <circle cx="0" cy="0" r="12" fill="#FFD700"/>
    <circle cx="0" cy="0" r="8" fill="#FFFFFF"/>
    <circle cx="-3" cy="-3" r="2" fill="#000"/>
    <circle cx="3" cy="-3" r="2" fill="#000"/>
    <path d="M-6 3 Q0 6 6 3" stroke="#000" stroke-width="1" fill="none"/>
    <path d="M-8 -8 Q-12 -12 -8 -16" stroke="#FFD700" stroke-width="2" fill="none"/>
    <path d="M8 -8 Q12 -12 8 -16" stroke="#FFD700" stroke-width="2" fill="none"/>
  </g>
</svg>
