<svg width="800" height="600" viewBox="0 0 800 600" fill="none" xmlns="http://www.w3.org/2000/svg">
  <!-- Sky background -->
  <defs>
    <linearGradient id="skyGradient" x1="0%" y1="0%" x2="0%" y2="100%">
      <stop offset="0%" style="stop-color:#87CEEB;stop-opacity:1" />
      <stop offset="100%" style="stop-color:#E0F6FF;stop-opacity:1" />
    </linearGradient>
    <linearGradient id="oceanGradient" x1="0%" y1="0%" x2="0%" y2="100%">
      <stop offset="0%" style="stop-color:#4682B4;stop-opacity:1" />
      <stop offset="50%" style="stop-color:#1E90FF;stop-opacity:1" />
      <stop offset="100%" style="stop-color:#000080;stop-opacity:1" />
    </linearGradient>
  </defs>
  
  <!-- Sky -->
  <rect width="800" height="300" fill="url(#skyGradient)"/>
  
  <!-- Ocean -->
  <rect x="0" y="300" width="800" height="300" fill="url(#oceanGradient)"/>
  
  <!-- Ocean waves -->
  <path d="M0,350 Q100,320 200,350 T400,350 T600,350 T800,350 L800,300 L0,300 Z" fill="#87CEEB" opacity="0.7"/>
  <path d="M0,380 Q150,350 300,380 T600,380 T800,380 L800,350 L0,350 Z" fill="#87CEEB" opacity="0.5"/>
  
  <!-- Sun -->
  <circle cx="650" cy="80" r="40" fill="#FFD700"/>
  <circle cx="650" cy="80" r="30" fill="#FFFF00"/>
  
  <!-- Clouds -->
  <ellipse cx="150" cy="60" rx="40" ry="20" fill="white" opacity="0.8"/>
  <ellipse cx="170" cy="60" rx="30" ry="15" fill="white" opacity="0.8"/>
  <ellipse cx="130" cy="60" rx="25" ry="12" fill="white" opacity="0.8"/>
  
  <ellipse cx="400" cy="40" rx="35" ry="18" fill="white" opacity="0.7"/>
  <ellipse cx="420" cy="40" rx="25" ry="12" fill="white" opacity="0.7"/>
  <ellipse cx="380" cy="40" rx="20" ry="10" fill="white" opacity="0.7"/>
  
  <!-- Underwater elements -->
  <!-- Coral reef -->
  <path d="M100,450 Q120,420 140,450 Q160,480 180,450 Q200,420 220,450" stroke="#FF6B6B" stroke-width="8" fill="none"/>
  <path d="M300,480 Q320,450 340,480 Q360,510 380,480 Q400,450 420,480" stroke="#FF8E8E" stroke-width="6" fill="none"/>
  
  <!-- Seaweed -->
  <path d="M50,500 Q60,450 70,500 Q80,550 90,500 Q100,450 110,500" stroke="#228B22" stroke-width="4" fill="none"/>
  <path d="M250,520 Q260,470 270,520 Q280,570 290,520 Q300,470 310,520" stroke="#32CD32" stroke-width="4" fill="none"/>
  <path d="M450,510 Q460,460 470,510 Q480,560 490,510 Q500,460 510,510" stroke="#228B22" stroke-width="4" fill="none"/>
  
  <!-- Hidden objects -->
  <!-- Starfish -->
  <g transform="translate(200, 400)">
    <path d="M0,-15 L4,-4 L15,-4 L7,2 L11,13 L0,7 L-11,13 L-7,2 L-15,-4 L-4,-4 Z" fill="#FF6347"/>
  </g>
  
  <!-- Seahorse -->
  <g transform="translate(500, 350)">
    <path d="M0,0 Q10,-10 20,0 Q30,10 20,20 Q10,30 0,20 Q-10,10 0,0" fill="#FFD700"/>
    <circle cx="15" cy="5" r="2" fill="#000"/>
    <path d="M20,15 Q25,20 20,25" stroke="#000" stroke-width="1" fill="none"/>
  </g>
  
  <!-- Shell -->
  <g transform="translate(600, 450)">
    <ellipse cx="0" cy="0" rx="15" ry="20" fill="#F0E68C"/>
    <ellipse cx="0" cy="0" rx="10" ry="15" fill="#FFE4B5"/>
    <path d="M-10,0 Q0,-5 10,0 Q0,5 -10,0" fill="#DDA0DD"/>
  </g>
  
  <!-- Fish swimming -->
  <g transform="translate(300, 250)">
    <ellipse cx="0" cy="0" rx="20" ry="12" fill="#FF69B4"/>
    <path d="M15,0 Q25,-5 20,-10 Q25,-15 15,-10" fill="#FF69B4"/>
    <circle cx="-5" cy="-3" r="2" fill="#000"/>
    <path d="M-15,0 Q-20,-3 -15,-6" stroke="#000" stroke-width="1" fill="none"/>
  </g>
  
  <!-- Bubbles -->
  <circle cx="150" cy="200" r="8" fill="white" opacity="0.6"/>
  <circle cx="180" cy="180" r="5" fill="white" opacity="0.4"/>
  <circle cx="220" cy="220" r="6" fill="white" opacity="0.5"/>
  <circle cx="350" cy="190" r="7" fill="white" opacity="0.6"/>
  <circle cx="380" cy="210" r="4" fill="white" opacity="0.4"/>
  <circle cx="420" cy="180" r="5" fill="white" opacity="0.5"/>
</svg>
