<svg width="800" height="600" viewBox="0 0 800 600" fill="none" xmlns="http://www.w3.org/2000/svg">
  <defs>
    <!-- Space gradient -->
    <radialGradient id="spaceGradient" cx="50%" cy="30%" r="70%">
      <stop offset="0%" style="stop-color:#000033;stop-opacity:1" />
      <stop offset="30%" style="stop-color:#000066;stop-opacity:1" />
      <stop offset="70%" style="stop-color:#000000;stop-opacity:1" />
      <stop offset="100%" style="stop-color:#000000;stop-opacity:1" />
    </radialGradient>
    
    <!-- Planet gradient -->
    <radialGradient id="planetGradient" cx="30%" cy="30%" r="70%">
      <stop offset="0%" style="stop-color:#FF6B6B;stop-opacity:1" />
      <stop offset="50%" style="stop-color:#FF4757;stop-opacity:1" />
      <stop offset="100%" style="stop-color:#C44569;stop-opacity:1" />
    </radialGradient>
    
    <!-- Star glow effect -->
    <filter id="starGlow">
      <feGaussianBlur stdDeviation="2" result="coloredBlur"/>
      <feMerge> 
        <feMergeNode in="coloredBlur"/>
        <feMergeNode in="SourceGraphic"/>
      </feMerge>
    </filter>
  </defs>
  
  <!-- Space background -->
  <rect width="800" height="600" fill="url(#spaceGradient)"/>
  
  <!-- Stars -->
  <circle cx="100" cy="80" r="2" fill="white" filter="url(#starGlow)"/>
  <circle cx="200" cy="120" r="1.5" fill="white" filter="url(#starGlow)"/>
  <circle cx="300" cy="60" r="2.5" fill="white" filter="url(#starGlow)"/>
  <circle cx="450" cy="100" r="1" fill="white" filter="url(#starGlow)"/>
  <circle cx="550" cy="140" r="2" fill="white" filter="url(#starGlow)"/>
  <circle cx="650" cy="70" r="1.5" fill="white" filter="url(#starGlow)"/>
  <circle cx="750" cy="110" r="2" fill="white" filter="url(#starGlow)"/>
  
  <circle cx="150" cy="200" r="1" fill="white" filter="url(#starGlow)"/>
  <circle cx="250" cy="180" r="2" fill="white" filter="url(#starGlow)"/>
  <circle cx="350" cy="220" r="1.5" fill="white" filter="url(#starGlow)"/>
  <circle cx="500" cy="190" r="1" fill="white" filter="url(#starGlow)"/>
  <circle cx="600" cy="210" r="2" fill="white" filter="url(#starGlow)"/>
  <circle cx="700" cy="180" r="1.5" fill="white" filter="url(#starGlow)"/>
  
  <circle cx="120" cy="300" r="1.5" fill="white" filter="url(#starGlow)"/>
  <circle cx="220" cy="320" r="1" fill="white" filter="url(#starGlow)"/>
  <circle cx="320" cy="280" r="2" fill="white" filter="url(#starGlow)"/>
  <circle cx="420" cy="310" r="1.5" fill="white" filter="url(#starGlow)"/>
  <circle cx="520" cy="290" r="1" fill="white" filter="url(#starGlow)"/>
  <circle cx="620" cy="320" r="2" fill="white" filter="url(#starGlow)"/>
  <circle cx="720" cy="300" r="1.5" fill="white" filter="url(#starGlow)"/>
  
  <!-- Large planet -->
  <circle cx="600" cy="150" r="80" fill="url(#planetGradient)"/>
  <ellipse cx="580" cy="130" rx="20" ry="15" fill="#FF8E8E" opacity="0.6"/>
  <ellipse cx="620" cy="160" rx="15" ry="10" fill="#FF8E8E" opacity="0.4"/>
  <ellipse cx="590" cy="180" rx="25" ry="8" fill="#FF8E8E" opacity="0.5"/>
  
  <!-- Asteroid belt -->
  <ellipse cx="200" cy="400" rx="60" ry="20" fill="#8B4513" opacity="0.8"/>
  <ellipse cx="180" cy="390" rx="15" ry="8" fill="#A0522D"/>
  <ellipse cx="220" cy="410" rx="12" ry="6" fill="#A0522D"/>
  <ellipse cx="250" cy="395" rx="18" ry="10" fill="#A0522D"/>
  
  <!-- Space station -->
  <rect x="100" y="200" width="80" height="40" fill="#C0C0C0" rx="5"/>
  <rect x="110" y="210" width="60" height="20" fill="#E0E0E0" rx="3"/>
  <circle cx="120" cy="220" r="3" fill="#87CEEB"/>
  <circle cx="140" cy="220" r="3" fill="#87CEEB"/>
  <circle cx="160" cy="220" r="3" fill="#87CEEB"/>
  <rect x="90" y="215" width="20" height="10" fill="#A0A0A0"/>
  <rect x="170" y="215" width="20" height="10" fill="#A0A0A0"/>
  
  <!-- Rocket ship -->
  <ellipse cx="500" cy="450" rx="25" ry="40" fill="#FFD700"/>
  <rect x="480" y="430" width="40" height="20" fill="#FFA500"/>
  <rect x="490" y="420" width="20" height="10" fill="#FF6347"/>
  <circle cx="500" cy="425" r="3" fill="#87CEEB"/>
  <path d="M475,470 Q500,480 525,470" stroke="#FF4500" stroke-width="3" fill="none"/>
  <path d="M475,475 Q500,485 525,475" stroke="#FF4500" stroke-width="3" fill="none"/>
  
  <!-- Comet -->
  <circle cx="300" cy="100" r="8" fill="#87CEEB"/>
  <path d="M308,100 Q320,95 330,100 Q320,105 308,100" fill="#E0F6FF"/>
  <path d="M330,100 Q340,98 350,100 Q340,102 330,100" fill="#B0E0E6"/>
  
  <!-- Hidden objects -->
  <!-- Alien -->
  <g transform="translate(150, 350)">
    <!-- Alien body -->
    <ellipse cx="0" cy="0" rx="20" ry="30" fill="#32CD32"/>
    <!-- Alien head -->
    <ellipse cx="0" cy="-15" rx="15" ry="20" fill="#32CD32"/>
    <!-- Eyes -->
    <circle cx="-8" cy="-20" r="4" fill="#000"/>
    <circle cx="8" cy="-20" r="4" fill="#000"/>
    <circle cx="-8" cy="-20" r="2" fill="#FFF"/>
    <circle cx="8" cy="-20" r="2" fill="#FFF"/>
    <!-- Mouth -->
    <ellipse cx="0" cy="-8" rx="8" ry="3" fill="#000"/>
    <!-- Antennae -->
    <circle cx="-10" cy="-35" r="3" fill="#FFD700"/>
    <circle cx="10" cy="-35" r="3" fill="#FFD700"/>
    <line x1="-8" y1="-30" x2="-10" y2="-35" stroke="#32CD32" stroke-width="2"/>
    <line x1="8" y1="-30" x2="10" y2="-35" stroke="#32CD32" stroke-width="2"/>
    <!-- Arms -->
    <ellipse cx="-25" cy="-5" rx="8" ry="15" fill="#32CD32"/>
    <ellipse cx="25" cy="-5" rx="8" ry="15" fill="#32CD32"/>
    <!-- Hands -->
    <circle cx="-25" cy="5" r="4" fill="#32CD32"/>
    <circle cx="25" cy="5" r="4" fill="#32CD32"/>
    <!-- Legs -->
    <ellipse cx="-8" cy="25" rx="6" ry="12" fill="#32CD32"/>
    <ellipse cx="8" cy="25" rx="6" ry="12" fill="#32CD32"/>
    <!-- Feet -->
    <ellipse cx="-8" cy="35" rx="8" ry="4" fill="#32CD32"/>
    <ellipse cx="8" cy="35" rx="8" ry="4" fill="#32CD32"/>
  </g>
  
  <!-- UFO -->
  <g transform="translate(400, 250)">
    <!-- UFO main body -->
    <ellipse cx="0" cy="0" rx="35" ry="12" fill="#C0C0C0"/>
    <!-- UFO top dome -->
    <ellipse cx="0" cy="-8" rx="28" ry="8" fill="#E0E0E0"/>
    <!-- UFO bottom -->
    <ellipse cx="0" cy="8" rx="30" ry="6" fill="#A0A0A0"/>
    <!-- Lights -->
    <circle cx="-20" cy="-8" r="3" fill="#FF0000"/>
    <circle cx="-10" cy="-8" r="3" fill="#00FF00"/>
    <circle cx="0" cy="-8" r="3" fill="#0000FF"/>
    <circle cx="10" cy="-8" r="3" fill="#FFFF00"/>
    <circle cx="20" cy="-8" r="3" fill="#FF00FF"/>
    <!-- Center light -->
    <circle cx="0" cy="-8" r="5" fill="#87CEEB" opacity="0.6"/>
    <!-- Landing gear -->
    <rect x="-8" y="8" width="4" height="12" fill="#808080"/>
    <rect x="-2" y="8" width="4" height="12" fill="#808080"/>
    <rect x="4" y="8" width="4" height="12" fill="#808080"/>
    <!-- Landing pads -->
    <ellipse cx="-6" cy="20" rx="6" ry="3" fill="#696969"/>
    <ellipse cx="0" cy="20" rx="6" ry="3" fill="#696969"/>
    <ellipse cx="6" cy="20" rx="6" ry="3" fill="#696969"/>
    <!-- Antenna -->
    <line x1="0" y1="-16" x2="0" y2="-25" stroke="#C0C0C0" stroke-width="2"/>
    <circle cx="0" cy="-25" r="2" fill="#FFD700"/>
    <!-- Windows -->
    <ellipse cx="-15" cy="0" rx="8" ry="4" fill="#87CEEB" opacity="0.7"/>
    <ellipse cx="15" cy="0" rx="8" ry="4" fill="#87CEEB" opacity="0.7"/>
  </g>
  
  <!-- Meteor -->
  <g transform="translate(650, 400)">
    <!-- Meteor body -->
    <ellipse cx="0" cy="0" rx="18" ry="12" fill="#8B4513"/>
    <!-- Meteor core -->
    <ellipse cx="0" cy="0" rx="12" ry="8" fill="#A0522D"/>
    <!-- Meteor surface details -->
    <ellipse cx="-8" cy="-3" rx="4" ry="3" fill="#654321"/>
    <ellipse cx="5" cy="2" rx="3" ry="2" fill="#654321"/>
    <ellipse cx="-3" cy="4" rx="2" ry="1.5" fill="#654321"/>
    <!-- Fire trail -->
    <path d="M-18,0 Q-25,-8 -30,0 Q-25,8 -18,0" fill="#FF4500"/>
    <path d="M-30,0 Q-35,-5 -40,0 Q-35,5 -30,0" fill="#FF6347"/>
    <path d="M-40,0 Q-45,-3 -50,0 Q-45,3 -40,0" fill="#FF8C00"/>
    <!-- Sparks -->
    <circle cx="-22" cy="-5" r="1" fill="#FFD700"/>
    <circle cx="-28" cy="3" r="1" fill="#FFD700"/>
    <circle cx="-35" cy="-2" r="1" fill="#FFD700"/>
    <circle cx="-42" cy="4" r="1" fill="#FFD700"/>
    <!-- Glow effect -->
    <ellipse cx="0" cy="0" rx="25" ry="18" fill="#FF4500" opacity="0.2"/>
  </g>
  
  <!-- Nebula clouds -->
  <ellipse cx="50" cy="500" rx="40" ry="20" fill="#FF69B4" opacity="0.3"/>
  <ellipse cx="70" cy="490" rx="30" ry="15" fill="#9370DB" opacity="0.2"/>
  <ellipse cx="30" cy="510" rx="25" ry="12" fill="#00CED1" opacity="0.2"/>
  
  <ellipse cx="750" cy="450" rx="35" ry="18" fill="#FF1493" opacity="0.3"/>
  <ellipse cx="730" cy="440" rx="25" ry="12" fill="#8A2BE2" opacity="0.2"/>
  <ellipse cx="770" cy="460" rx="20" ry="10" fill="#00BFFF" opacity="0.2"/>
</svg>
