<svg width="100" height="100" viewBox="0 0 100 100" fill="none" xmlns="http://www.w3.org/2000/svg">
  <g transform="translate(50, 50)">
    <!-- Alien body -->
    <ellipse cx="0" cy="0" rx="20" ry="30" fill="#32CD32"/>
    <!-- Alien head -->
    <ellipse cx="0" cy="-15" rx="15" ry="20" fill="#32CD32"/>
    <!-- Eyes -->
    <circle cx="-8" cy="-20" r="4" fill="#000"/>
    <circle cx="8" cy="-20" r="4" fill="#000"/>
    <circle cx="-8" cy="-20" r="2" fill="#FFF"/>
    <circle cx="8" cy="-20" r="2" fill="#FFF"/>
    <!-- Mouth -->
    <ellipse cx="0" cy="-8" rx="8" ry="3" fill="#000"/>
    <!-- Antennae -->
    <circle cx="-10" cy="-35" r="3" fill="#FFD700"/>
    <circle cx="10" cy="-35" r="3" fill="#FFD700"/>
    <line x1="-8" y1="-30" x2="-10" y2="-35" stroke="#32CD32" stroke-width="2"/>
    <line x1="8" y1="-30" x2="10" y2="-35" stroke="#32CD32" stroke-width="2"/>
    <!-- Arms -->
    <ellipse cx="-25" cy="-5" rx="8" ry="15" fill="#32CD32"/>
    <ellipse cx="25" cy="-5" rx="8" ry="15" fill="#32CD32"/>
    <!-- Hands -->
    <circle cx="-25" cy="5" r="4" fill="#32CD32"/>
    <circle cx="25" cy="5" r="4" fill="#32CD32"/>
    <!-- Legs -->
    <ellipse cx="-8" cy="25" rx="6" ry="12" fill="#32CD32"/>
    <ellipse cx="8" cy="25" rx="6" ry="12" fill="#32CD32"/>
    <!-- Feet -->
    <ellipse cx="-8" cy="35" rx="8" ry="4" fill="#32CD32"/>
    <ellipse cx="8" cy="35" rx="8" ry="4" fill="#32CD32"/>
  </g>
</svg>
