<svg width="100" height="100" viewBox="0 0 100 100" fill="none" xmlns="http://www.w3.org/2000/svg">
  <g transform="translate(50, 50)">
    <!-- Meteor body -->
    <ellipse cx="0" cy="0" rx="18" ry="12" fill="#8B4513"/>
    <!-- Meteor core -->
    <ellipse cx="0" cy="0" rx="12" ry="8" fill="#A0522D"/>
    <!-- Meteor surface details -->
    <ellipse cx="-8" cy="-3" rx="4" ry="3" fill="#654321"/>
    <ellipse cx="5" cy="2" rx="3" ry="2" fill="#654321"/>
    <ellipse cx="-3" cy="4" rx="2" ry="1.5" fill="#654321"/>
    <!-- Fire trail -->
    <path d="M-18,0 Q-25,-8 -30,0 Q-25,8 -18,0" fill="#FF4500"/>
    <path d="M-30,0 Q-35,-5 -40,0 Q-35,5 -30,0" fill="#FF6347"/>
    <path d="M-40,0 Q-45,-3 -50,0 Q-45,3 -40,0" fill="#FF8C00"/>
    <!-- Sparks -->
    <circle cx="-22" cy="-5" r="1" fill="#FFD700"/>
    <circle cx="-28" cy="3" r="1" fill="#FFD700"/>
    <circle cx="-35" cy="-2" r="1" fill="#FFD700"/>
    <circle cx="-42" cy="4" r="1" fill="#FFD700"/>
    <!-- Glow effect -->
    <ellipse cx="0" cy="0" rx="25" ry="18" fill="#FF4500" opacity="0.2"/>
  </g>
</svg>
