<svg width="100" height="100" viewBox="0 0 100 100" fill="none" xmlns="http://www.w3.org/2000/svg">
  <g transform="translate(50, 50)">
    <!-- Seahorse body -->
    <path d="M0,0 Q15,-15 30,0 Q45,15 30,30 Q15,45 0,30 Q-15,15 0,0" fill="#FFD700"/>
    <!-- Seahorse head -->
    <ellipse cx="20" cy="5" rx="8" ry="6" fill="#FFD700"/>
    <!-- Eye -->
    <circle cx="22" cy="3" r="2" fill="#000"/>
    <circle cx="23" cy="2" r="1" fill="#FFF"/>
    <!-- Snout -->
    <ellipse cx="28" cy="5" rx="6" ry="3" fill="#FFD700"/>
    <!-- Fins -->
    <path d="M15,15 Q20,10 25,15 Q20,20 15,15" fill="#FFA500"/>
    <path d="M5,25 Q10,20 15,25 Q10,30 5,25" fill="#FFA500"/>
    <!-- Tail -->
    <path d="M-10,20 Q-20,25 -15,35 Q-10,30 -5,25" fill="#FFD700"/>
    <!-- Tail fin -->
    <path d="M-15,35 Q-25,40 -20,45 Q-15,40 -10,35" fill="#FFA500"/>
  </g>
</svg>
