<svg width="100" height="100" viewBox="0 0 100 100" fill="none" xmlns="http://www.w3.org/2000/svg">
  <g transform="translate(50, 50)">
    <!-- UFO main body -->
    <ellipse cx="0" cy="0" rx="35" ry="12" fill="#C0C0C0"/>
    <!-- UFO top dome -->
    <ellipse cx="0" cy="-8" rx="28" ry="8" fill="#E0E0E0"/>
    <!-- UFO bottom -->
    <ellipse cx="0" cy="8" rx="30" ry="6" fill="#A0A0A0"/>
    <!-- Lights -->
    <circle cx="-20" cy="-8" r="3" fill="#FF0000"/>
    <circle cx="-10" cy="-8" r="3" fill="#00FF00"/>
    <circle cx="0" cy="-8" r="3" fill="#0000FF"/>
    <circle cx="10" cy="-8" r="3" fill="#FFFF00"/>
    <circle cx="20" cy="-8" r="3" fill="#FF00FF"/>
    <!-- Center light -->
    <circle cx="0" cy="-8" r="5" fill="#87CEEB" opacity="0.6"/>
    <!-- Landing gear -->
    <rect x="-8" y="8" width="4" height="12" fill="#808080"/>
    <rect x="-2" y="8" width="4" height="12" fill="#808080"/>
    <rect x="4" y="8" width="4" height="12" fill="#808080"/>
    <!-- Landing pads -->
    <ellipse cx="-6" cy="20" rx="6" ry="3" fill="#696969"/>
    <ellipse cx="0" cy="20" rx="6" ry="3" fill="#696969"/>
    <ellipse cx="6" cy="20" rx="6" ry="3" fill="#696969"/>
    <!-- Antenna -->
    <line x1="0" y1="-16" x2="0" y2="-25" stroke="#C0C0C0" stroke-width="2"/>
    <circle cx="0" cy="-25" r="2" fill="#FFD700"/>
    <!-- Windows -->
    <ellipse cx="-15" cy="0" rx="8" ry="4" fill="#87CEEB" opacity="0.7"/>
    <ellipse cx="15" cy="0" rx="8" ry="4" fill="#87CEEB" opacity="0.7"/>
  </g>
</svg>
